<svg width="24" height="24" viewBox="0 0 24 24" fill="none" xmlns="http://www.w3.org/2000/svg">
<path d="M10 8.00003C8.9 8.00003 7.95833 7.60836 7.175 6.82503C6.39167 6.04169 6 5.10003 6 4.00003C6 2.90003 6.39167 1.95836 7.175 1.17503C7.95833 0.391692 8.9 2.5641e-05 10 2.5641e-05C11.1 2.5641e-05 12.0417 0.391692 12.825 1.17503C13.6083 1.95836 14 2.90003 14 4.00003C14 5.10003 13.6083 6.04169 12.825 6.82503C12.0417 7.60836 11.1 8.00003 10 8.00003ZM16 8.00003C15.8167 8.00003 15.5833 7.97936 15.3 7.93803C15.0167 7.89669 14.7833 7.85069 14.6 7.80003C15.05 7.26669 15.396 6.67503 15.638 6.02503C15.88 5.37503 16.0007 4.70003 16 4.00003C15.9993 3.30003 15.8783 2.62503 15.637 1.97503C15.3957 1.32503 15.05 0.733359 14.6 0.200026C14.8333 0.116692 15.0667 0.062359 15.3 0.0370256C15.5333 0.0116923 15.7667 -0.000641026 16 2.5641e-05C17.1 2.5641e-05 18.0417 0.391692 18.825 1.17503C19.6083 1.95836 20 2.90003 20 4.00003C20 5.10003 19.6083 6.04169 18.825 6.82503C18.0417 7.60836 17.1 8.00003 16 8.00003ZM19 20C17.6167 20 16.4377 19.5124 15.463 18.537C14.4883 17.5617 14.0007 16.3827 14 15C14 13.6 14.4877 12.4167 15.463 11.45C16.4383 10.4834 17.6173 10 19 10C20.4 10 21.5833 10.4834 22.55 11.45C23.5167 12.4167 24 13.6 24 15C24 16.3834 23.5167 17.5627 22.55 18.538C21.5833 19.5134 20.4 20.0007 19 20ZM18.3 17.25L21.825 13.7L21.125 13L18.3 15.825L16.875 14.4L16.175 15.125L18.3 17.25ZM2 16V13.2C2 12.6334 2.146 12.1127 2.438 11.638C2.73 11.1634 3.11733 10.8007 3.6 10.55C4.63333 10.0334 5.68333 9.64603 6.75 9.38803C7.81667 9.13002 8.9 9.00069 10 9.00003C10.75 9.00003 11.4917 9.05836 12.225 9.17503C12.9583 9.29169 13.6917 9.47503 14.425 9.72503C13.525 10.5084 12.875 11.4544 12.475 12.563C12.075 13.6717 11.9417 14.8174 12.075 16H2Z" fill="#141D2B"/>
</svg>
