<svg width="42" height="42" viewBox="0 0 42 42" fill="none" xmlns="http://www.w3.org/2000/svg">
<g clip-path="url(#clip0_232_37)">
<path d="M79.066 67.066L-4.58561 44.6516L56.6516 -16.5856L79.066 67.066Z" fill="#141D2B"/>
<path d="M32.5212 16.7213C30.3092 6.95625 25.0802 3.74675 24.5185 2.52C24.0285 1.8305 23.591 0.8505 23.2322 0C23.1692 0.86625 23.136 1.19875 22.317 2.072C21.0517 3.0625 14.5505 8.5155 14.022 19.607C13.5285 29.953 21.4945 36.1182 22.576 36.904L22.6985 36.9915C22.9235 38.6571 23.116 40.3269 23.276 42H24.1177C24.3189 40.1945 24.6168 38.4011 25.0102 36.6275C25.74 36.1095 26.0672 35.8172 26.4977 35.4147C28.5366 33.5289 30.1569 31.2361 31.2539 28.6846C32.3509 26.1331 32.9001 23.3798 32.866 20.6027C32.8835 19.1782 32.6857 17.6943 32.5212 16.7213ZM23.1832 31.0625C23.1832 31.0625 23.1832 16.5533 23.6645 16.555C24.0372 16.555 24.522 35.2713 24.522 35.2713C23.8552 35.1925 23.1832 32.1912 23.1832 31.0625Z" fill="#9CA3AF"/>
<path d="M-32.6447 -32.6446L51.007 -10.2303L-10.2303 51.007L-32.6447 -32.6446Z" fill="#141D2B"/>
<path fill-rule="evenodd" clip-rule="evenodd" d="M32.1968 22.2864C30.5907 22.2418 29.3446 22.4063 28.3003 22.8457C27.9996 22.9665 27.5171 22.9665 27.4774 23.3449C27.6382 23.5038 27.6575 23.7636 27.7985 23.9838C28.0392 24.3833 28.4614 24.9214 28.8427 25.2007L30.128 26.1191C30.9112 26.5976 31.7949 26.8774 32.5579 27.3564C32.9999 27.636 33.4416 27.9953 33.8836 28.295C34.1086 28.4547 34.245 28.7147 34.5263 28.814V28.7536C34.3859 28.5746 34.3454 28.3152 34.2054 28.1147L33.6022 27.5362C33.0203 26.7579 32.2967 26.0787 31.5135 25.5204C30.8707 25.0812 29.4653 24.4826 29.2042 23.7444L29.1646 23.6996C29.6058 23.655 30.128 23.4997 30.5501 23.3799C31.2335 23.2009 31.8556 23.2403 32.5579 23.0608L33.5226 22.7812V22.6022C33.161 22.2431 32.9 21.7639 32.5187 21.4249C31.4946 20.5467 30.3692 19.6882 29.2042 18.9697C28.5817 18.5707 27.7781 18.3107 27.1155 17.9721C26.8738 17.8521 26.4727 17.7922 26.3322 17.5927C25.9698 17.1544 25.7695 16.5749 25.5085 16.0556L23.8618 12.5828C23.5004 11.8043 23.2789 11.0258 22.8377 10.3074C20.7687 6.91409 18.5189 4.85855 15.0644 2.84222C14.3217 2.42304 13.4381 2.24273 12.4985 2.02355L10.9924 1.94316C10.6705 1.80354 10.3494 1.42406 10.0682 1.24425C8.92341 0.525655 5.97094 -1.03097 5.12667 1.02063C4.58445 2.31787 5.93042 3.5951 6.38733 4.25414C6.7294 4.71319 7.17057 5.23195 7.41223 5.75105C7.54725 6.09016 7.59237 6.44979 7.7333 6.80909C8.05421 7.68715 8.35575 8.66562 8.77756 9.48429C9.00265 9.90347 9.23907 10.3432 9.52027 10.7221C9.68105 10.9458 9.96242 11.0416 10.0223 11.4007C9.74093 11.8002 9.72157 12.3984 9.56079 12.8981C8.83744 15.1536 9.11881 17.9479 10.1429 19.6086C10.4648 20.1073 11.2232 21.2056 12.2524 20.7861C13.1562 20.4268 12.9546 19.2892 13.2156 18.291C13.2763 18.0518 13.236 17.892 13.3561 17.7319V17.7767L14.1798 19.4332C14.8024 20.4112 15.8874 21.4294 16.7907 22.1084C17.2724 22.4677 17.6542 23.0869 18.2564 23.3061V23.2457H18.2169C18.0961 23.0667 17.9152 22.9861 17.7546 22.8465C17.3931 22.4874 16.9915 22.048 16.7101 21.649C15.867 20.5314 15.1243 19.2936 14.4612 18.0164C14.1394 17.3977 13.8581 16.719 13.5979 16.1003C13.4763 15.8606 13.4763 15.5008 13.276 15.3818C12.9743 15.8202 12.5333 16.2005 12.3113 16.7391C11.9295 17.5972 11.89 18.6552 11.7495 19.7531C11.6685 19.7731 11.7044 19.7531 11.6685 19.7977C11.0265 19.6386 10.805 18.9791 10.5644 18.4208C9.96192 17.0036 9.86103 14.7282 10.3832 13.0914C10.5237 12.6722 11.1269 11.3548 10.8861 10.9556C10.7647 10.5763 10.3639 10.3571 10.1424 10.0574C9.88137 9.67805 9.60099 9.19931 9.42003 8.78013C8.93834 7.66172 8.6975 6.42469 8.17479 5.30693C7.93313 4.78784 7.51182 4.24873 7.17007 3.77016C6.7883 3.23105 6.36748 2.85157 6.06593 2.2132C5.96553 1.98959 5.82509 1.63439 5.98571 1.39453C6.02541 1.2349 6.10629 1.17091 6.26625 1.13515C6.52711 0.911366 7.27097 1.19503 7.532 1.31398C8.27471 1.61372 8.89732 1.89295 9.51994 2.31164C9.80131 2.51114 10.1029 2.89062 10.4643 2.99086H10.8866C11.5294 3.13031 12.2519 3.03548 12.8537 3.21448C13.9185 3.55441 14.8822 4.05284 15.7464 4.59227C18.3772 6.24898 20.5469 8.60426 22.0125 11.4191C22.2533 11.8781 22.3537 12.2973 22.5752 12.7764C22.9975 13.7548 23.5197 14.7525 23.9405 15.7111C24.3628 16.6492 24.7643 17.608 25.3667 18.3863C25.6683 18.8055 26.8728 19.0247 27.4149 19.2444C27.8168 19.4234 28.439 19.5845 28.8014 19.8037C29.4837 20.2228 30.1667 20.7019 30.809 21.1609C31.1299 21.3998 32.1348 21.8991 32.1945 22.2972L32.1968 22.2864ZM11.7148 4.94123C11.4374 4.93885 11.1608 4.97238 10.892 5.04098V5.08577H10.9315C11.0923 5.4052 11.3737 5.62488 11.5743 5.90445L12.0367 6.86257L12.0764 6.81795C12.3576 6.61845 12.4985 6.29902 12.4985 5.82044C12.3779 5.68083 12.3581 5.54072 12.2577 5.4011C12.1371 5.2016 11.876 5.10136 11.7148 4.94222V4.94123Z" fill="#9CA3AF"/>
<path d="M105.671 42.4617L24.5393 72.7552L31.4684 28.51L32.7711 23.455L32.5554 17.9593L38.8701 -12.6534L105.671 42.4617Z" fill="#141D2B"/>
<path d="M-0.707092 41.2928L41.2929 -0.707155" stroke="#9CA3AF" stroke-width="2" stroke-linecap="round"/>
</g>
<defs>
<clipPath id="clip0_232_37">
<rect width="42" height="42" fill="white"/>
</clipPath>
</defs>
</svg>
