<svg width="42" height="42" viewBox="0 0 42 42" fill="none" xmlns="http://www.w3.org/2000/svg">
<path d="M15.4 15.4H18.55C18.725 15.4 18.9 15.225 18.9 15.05V12.425C18.9 12.25 18.725 12.075 18.55 12.075H15.4C15.225 12.075 15.05 12.25 15.05 12.425V15.225C15.05 15.225 15.225 15.4 15.4 15.4ZM19.6 19.425H22.75C22.925 19.425 23.1 19.25 23.1 19.075V16.275C23.1 16.1 22.925 15.925 22.75 15.925H19.6C19.425 15.925 19.25 16.1 19.25 16.275V19.075C19.25 19.25 19.425 19.425 19.6 19.425ZM19.6 15.4H22.75C22.925 15.4 23.1 15.225 23.1 15.05V12.425L22.75 12.075H19.6C19.425 12.075 19.25 12.25 19.25 12.425V15.225C19.25 15.225 19.425 15.4 19.6 15.4ZM23.975 19.425H27.125C27.3 19.425 27.475 19.25 27.475 19.075V16.275C27.475 16.1 27.3 15.925 27.125 15.925H23.975C23.8 15.925 23.625 16.1 23.625 16.275V19.075C23.625 19.25 23.8 19.425 23.975 19.425ZM19.6 11.375H22.75C22.925 11.375 23.1 11.2 23.1 11.025V8.40005C23.1 8.22505 22.925 8.05005 22.75 8.05005H19.6C19.425 8.05005 19.25 8.22505 19.25 8.40005V11.2C19.25 11.375 19.425 11.375 19.6 11.375ZM6.65 19.425H9.8C9.975 19.425 10.15 19.25 10.15 19.075V16.275C10.15 16.1 9.975 15.925 9.8 15.925H6.65C6.475 15.925 6.3 16.1 6.3 16.275V19.075L6.65 19.425ZM38.15 17.675C37.275 17.15 36.225 16.8 35.35 16.975C34.825 16.975 34.3 16.975 33.95 17.15C33.6 15.575 32.725 14.175 31.5 13.475L30.975 13.125L30.625 13.65C30.1 14 29.75 14.7 29.575 15.575C29.225 16.975 29.4 18.375 30.1 19.425C29.225 19.775 28.35 19.95 27.475 20.125H4.55C4.025 20.125 3.5 20.65 3.5 21.175C3.5 23.2751 3.85 25.2 4.55 27.125C5.25 29.05 6.475 30.625 8.05 31.675C10.5 32.9 13.125 33.425 15.75 33.25C17.15 33.25 18.55 33.075 19.95 32.9C21.875 32.55 23.8 31.85 25.55 30.8C26.95 29.925 28.175 28.875 29.4 27.6501C30.975 25.725 32.2 23.625 33.075 21.175H33.425C34.825 21.175 36.225 20.65 37.275 19.775C37.8 19.425 38.15 18.9 38.325 18.2L38.5 17.85L38.15 17.675ZM11.025 19.425H14C14.175 19.425 14.35 19.25 14.35 19.075V16.275C14.35 16.1 14.175 15.925 14 15.925H11.025C10.85 15.925 10.675 16.1 10.675 16.275V19.075C10.675 19.25 10.85 19.425 11.025 19.425ZM11.025 15.4H14C14.175 15.4 14.35 15.225 14.35 15.05V12.425C14.35 12.25 14.175 12.075 14 12.075H11.025C10.85 12.075 10.675 12.25 10.675 12.425V15.225C10.675 15.225 10.85 15.4 11.025 15.4ZM15.4 19.425H18.55C18.725 19.425 18.9 19.25 18.9 19.075V16.275C18.9 16.1 18.725 15.925 18.55 15.925H15.4C15.225 15.925 15.05 16.1 15.05 16.275V19.075C15.05 19.25 15.225 19.425 15.4 19.425Z" fill="#9FEF00"/>
</svg>
