<svg width="32" height="32" viewBox="0 0 32 32" fill="none" xmlns="http://www.w3.org/2000/svg">
<path fill-rule="evenodd" clip-rule="evenodd" d="M10.2903 11.5674C7.84538 11.605 5.875 13.5987 5.875 16.0525C5.875 18.5299 7.8833 20.5382 10.3606 20.5382H14.8463V11.5674H10.2903ZM22.8734 11.5674C25.2987 11.627 27.2466 13.6119 27.2466 16.0517C27.2466 18.5291 25.2384 20.5373 22.761 20.5373C20.2837 20.5373 18.2754 18.5291 18.2754 16.0517C18.2754 13.6119 20.2233 11.627 22.6488 11.5674H22.8734ZM23.381 0.407593C25.5159 0.407593 27.2466 2.1383 27.2466 4.27323C27.2466 6.40818 25.5159 8.13887 23.381 8.13887H22.9102C22.8606 8.13796 22.8109 8.1375 22.761 8.1375C22.7112 8.1375 22.6615 8.13796 22.6119 8.13887H18.2754V0.407593H23.381ZM5.875 4.27323C5.875 2.1383 7.60572 0.407593 9.74064 0.407593H14.8463V8.13835H10.3606C10.3294 8.13835 10.2983 8.13853 10.2672 8.13887H9.74064C7.60572 8.13887 5.875 6.40818 5.875 4.27323ZM9.74064 23.9686C7.60572 23.9686 5.875 25.6994 5.875 27.8342C5.875 29.9693 7.60572 31.7001 9.74064 31.7001H10.3606C12.838 31.7001 14.8463 29.6916 14.8463 27.2143V23.9686H9.74064Z" fill="#9FEF00"/>
</svg>
