<svg width="24" height="24" viewBox="0 0 24 24" fill="none" xmlns="http://www.w3.org/2000/svg">
<path fill-rule="evenodd" clip-rule="evenodd" d="M8.08384 2.6C8.24584 2.235 8.60684 2 9.00684 2H16.9838C17.7338 2 18.2228 2.79 17.8868 3.462L15.6178 8H18.9758C19.8758 8 20.3258 9.088 19.6898 9.724L7.73684 21.677C6.98284 22.431 5.72684 21.655 6.06484 20.644L8.61284 13H5.01484C4.84659 13 4.681 12.958 4.53312 12.8777C4.38524 12.7974 4.25975 12.6815 4.16806 12.5404C4.07636 12.3994 4.02136 12.2376 4.00805 12.0699C3.99474 11.9022 4.02354 11.7338 4.09184 11.58L8.08384 2.6Z" fill="#141D2B"/>
</svg>
