<svg width="42" height="42" viewBox="0 0 42 42" fill="none" xmlns="http://www.w3.org/2000/svg">
<path fill-rule="evenodd" clip-rule="evenodd" d="M21.771 2.625C21.5337 2.625 21.2887 2.63726 21.0377 2.65716C14.5655 3.16702 16.2819 10.0173 16.1839 12.3003C16.066 13.9738 15.7246 15.2921 14.5747 16.9258C13.2196 18.5351 11.3179 21.1365 10.4161 23.8481C9.99042 25.1221 9.78834 26.4266 9.97664 27.6591C9.90623 27.7155 9.84836 27.7859 9.80671 27.8659C9.40861 28.2762 9.11921 28.7861 8.79309 29.1505C8.48839 29.4552 8.05046 29.5593 7.57275 29.7629C7.09357 29.9712 6.56529 30.1748 6.24988 30.8056C6.11207 31.0935 6.04164 31.4073 6.04775 31.7258C6.04775 32.0305 6.0891 32.3398 6.13196 32.5465C6.22076 33.1574 6.30956 33.6627 6.19168 34.0317C5.81195 35.0729 5.7645 35.7864 6.0309 36.3054C6.29733 36.8169 6.85006 37.0236 7.46866 37.2257C8.71041 37.5319 10.3931 37.4324 11.7175 38.1428C13.1354 38.8579 14.5747 39.1703 15.723 38.8625C16.1202 38.7756 16.4927 38.6005 16.8129 38.35C17.1331 38.0995 17.3928 37.7801 17.5727 37.4155C18.4714 37.4109 19.456 37.0036 21.033 36.9041C22.1033 36.8153 23.4431 37.3129 24.9803 37.2088C25.0186 37.4156 25.0767 37.5135 25.1548 37.7202L25.1594 37.7248C25.7581 38.916 26.8636 39.4581 28.0441 39.3647C29.2246 39.2728 30.4817 38.5439 31.4999 37.365C32.466 36.1937 34.0768 35.7053 35.141 35.0637C35.6737 34.759 36.104 34.3456 36.1346 33.7576C36.1699 33.1452 35.83 32.5144 35.0414 31.6493V31.5007L35.0368 31.4961C34.7765 31.1899 34.6541 30.677 34.5193 30.0783C34.3891 29.4643 34.2406 28.8748 33.766 28.4767H33.7614C33.671 28.3941 33.5731 28.3742 33.4735 28.27C33.3879 28.2102 33.287 28.1762 33.1826 28.172C33.8426 26.2152 33.5868 24.2676 32.9177 22.516C32.1016 20.3571 30.6746 18.4768 29.5875 17.183C28.3687 15.6443 27.1744 14.1866 27.1974 12.0246C27.2387 8.72964 27.5603 2.63419 21.771 2.625ZM22.581 7.8385H22.6009C22.927 7.8385 23.2073 7.93345 23.4951 8.14168C23.7875 8.3484 24.0004 8.65003 24.1673 8.95781C24.328 9.35435 24.4092 9.66057 24.4214 10.0663C24.4214 10.0357 24.4306 10.0051 24.4306 9.97599V10.1352C24.4272 10.1248 24.4252 10.114 24.4245 10.1031L24.4184 10.0663C24.4152 10.4384 24.3371 10.8061 24.1887 11.1473C24.1172 11.3393 24.0061 11.514 23.8626 11.6603C23.8192 11.6357 23.7742 11.6143 23.7278 11.5959C23.567 11.527 23.4231 11.498 23.2914 11.3923C23.1828 11.3489 23.0706 11.3151 22.9561 11.2913C23.0312 11.2009 23.1781 11.0876 23.2348 10.9881C23.3159 10.7921 23.3603 10.5839 23.3696 10.3726V10.3434C23.373 10.1355 23.3414 9.92849 23.2762 9.73104C23.2073 9.52432 23.1215 9.42326 22.9959 9.21962C22.8673 9.11855 22.7402 9.01749 22.5871 9.01749H22.5626C22.4202 9.01749 22.2931 9.06343 22.1615 9.21962C22.0161 9.36147 21.9083 9.5372 21.8476 9.73104C21.7662 9.92557 21.7196 10.1329 21.7098 10.3435V10.3726C21.7129 10.5089 21.722 10.6466 21.7404 10.7814C21.4449 10.6788 21.0698 10.5746 20.811 10.4721C20.7956 10.3712 20.7864 10.2694 20.7834 10.1674V10.1368C20.7712 9.73207 20.8497 9.32975 21.0131 8.95933C21.1386 8.62329 21.3696 8.33697 21.6715 8.14324C21.9334 7.94539 22.2527 7.8384 22.581 7.8385ZM18.0458 7.92885H18.1009C18.3183 7.92885 18.5143 8.00235 18.7118 8.13557C18.9354 8.3331 19.116 8.57653 19.2385 8.84756C19.3764 9.15227 19.4544 9.46157 19.4728 9.86885V9.87496C19.4835 10.0801 19.482 10.1827 19.4697 10.2822V10.4047C19.4238 10.4154 19.384 10.4323 19.3426 10.4415C19.1099 10.5257 18.9231 10.6482 18.7409 10.7477C18.7593 10.6114 18.7608 10.4736 18.7455 10.3389V10.3159C18.7271 10.1123 18.6858 10.0112 18.6199 9.80606C18.5722 9.65001 18.4846 9.5091 18.3658 9.39721C18.328 9.36291 18.2838 9.33655 18.2357 9.31972C18.1875 9.30288 18.1365 9.29591 18.0856 9.29923H18.0534C17.9447 9.30841 17.8544 9.36198 17.7686 9.50135C17.6709 9.6199 17.6074 9.76284 17.5849 9.91479C17.5433 10.0803 17.5314 10.2519 17.5497 10.4216V10.443C17.5681 10.6497 17.6063 10.7508 17.6737 10.9544C17.7426 11.1596 17.8222 11.2606 17.9264 11.3647C17.9432 11.3785 17.9585 11.3923 17.9784 11.4015C17.8712 11.4888 17.7993 11.5087 17.7089 11.6097C17.6516 11.6603 17.5827 11.6961 17.5083 11.7139C17.3492 11.5222 17.2083 11.3161 17.0873 11.0983C16.9426 10.7766 16.862 10.4297 16.85 10.077C16.8246 9.73141 16.8662 9.38413 16.9724 9.05424C17.0568 8.75342 17.2045 8.47413 17.4058 8.23512C17.6017 8.03148 17.8039 7.92885 18.0458 7.92885ZM20.1449 10.541C20.6518 10.541 21.2657 10.6406 22.0053 11.1519C22.4539 11.4582 22.8061 11.5638 23.6176 11.8685H23.6222C24.0126 12.0768 24.2423 12.2758 24.3541 12.4795V12.2789C24.409 12.3902 24.4396 12.512 24.4438 12.6361C24.448 12.7601 24.4258 12.8837 24.3786 12.9985C24.1902 13.4747 23.5885 13.9846 22.7494 14.2893V14.2923C22.3391 14.4991 21.9823 14.8022 21.5628 15.0043C21.1402 15.211 20.6625 15.4514 20.0132 15.4131C19.78 15.4252 19.5468 15.3903 19.3273 15.3105C19.1578 15.2183 18.9932 15.1171 18.8343 15.0074C18.5357 14.8007 18.2785 14.499 17.8972 14.2954V14.2878H17.8896C17.2771 13.9111 16.9464 13.5038 16.8392 13.1991C16.7336 12.7888 16.8316 12.481 17.1347 12.2804C17.4777 12.0737 17.7166 11.8655 17.8743 11.7659C18.0335 11.6527 18.0932 11.6098 18.1438 11.5654H18.1468V11.5608C18.4056 11.2515 18.8144 10.8427 19.4314 10.6406C19.6443 10.5854 19.8816 10.541 20.1449 10.541ZM24.4306 13.8223C24.9803 15.9919 26.2634 19.143 27.0887 20.6711C27.5266 21.4887 28.3978 23.2112 28.776 25.3012C29.0149 25.2936 29.2797 25.3288 29.5614 25.3993C30.5506 22.8407 28.7255 20.0908 27.8941 19.3267C27.5557 19.0189 27.5389 18.8138 27.7057 18.8138C28.6076 19.6314 29.7957 21.2207 30.226 23.0351C30.4235 23.8543 30.4694 24.7255 30.2581 25.5922C30.3607 25.635 30.4648 25.6855 30.572 25.6947C32.1521 26.5124 32.7355 27.1309 32.4553 28.0481V27.9823C32.3619 27.9777 32.2716 27.9823 32.1782 27.9823H32.1552C32.3864 27.2672 31.8766 26.7191 30.5246 26.1081C29.1236 25.4957 28.0043 25.5937 27.8129 26.8201C27.8022 26.886 27.7945 26.9212 27.7869 27.0268C27.6828 27.062 27.574 27.108 27.4669 27.1248C26.8085 27.5351 26.4533 28.1491 26.2527 28.9423C26.0536 29.7584 25.9924 30.7123 25.9388 31.804V31.8086C25.9067 32.32 25.677 33.0917 25.4504 33.8771C23.1536 35.5185 19.9689 36.2321 17.2603 34.3885C17.0904 34.0916 16.8836 33.8174 16.6448 33.5724C16.5308 33.3819 16.3889 33.2095 16.2237 33.0611C16.5024 33.0611 16.7412 33.0166 16.9357 32.9585C17.1559 32.8563 17.3281 32.6731 17.4165 32.4471C17.5818 32.0383 17.4165 31.3798 16.8882 30.6664C16.36 29.9513 15.4627 29.1429 14.1506 28.3375C13.1859 27.7266 12.6409 27.0054 12.3898 26.2C12.1371 25.3824 12.1708 24.5387 12.3668 23.6813C12.7419 22.0429 13.7035 20.4506 14.3174 19.4508C14.4813 19.3512 14.3741 19.6575 13.6927 20.9421C13.0864 22.092 11.9457 24.7653 13.506 26.8431C13.5649 25.3271 13.9006 23.8347 14.4966 22.4395C15.3601 20.4827 17.1654 17.0744 17.3078 14.3735C17.3812 14.4286 17.64 14.5802 17.7502 14.6827C18.084 14.8864 18.3321 15.1926 18.6536 15.3948C18.9767 15.7025 19.384 15.9077 19.9949 15.9077C20.0546 15.9123 20.1098 15.9169 20.1649 15.9169C20.7942 15.9169 21.2811 15.7117 21.6899 15.5065C22.1339 15.3014 22.4876 14.9951 22.8229 14.8941H22.8306C23.5456 14.6874 24.1106 14.2786 24.4306 13.8223M27.7777 27.5382C27.8343 28.4584 28.3028 29.4445 29.1281 29.6466C30.0284 29.8518 31.3238 29.1368 31.8704 28.4753L32.1934 28.4615C32.6758 28.4493 33.0769 28.4768 33.4904 28.8703L33.4949 28.8749C33.8134 29.1796 33.9619 29.6879 34.0936 30.2162C34.2238 30.8302 34.3294 31.4105 34.7198 31.8484C35.464 32.6553 35.7074 33.2356 35.6936 33.5939L35.6982 33.5847V33.6123L35.6936 33.5939C35.6707 33.995 35.4104 34.2002 34.9312 34.5049C33.9665 35.1189 32.2578 35.5951 31.1691 36.9088C30.2229 38.0372 29.0699 38.6528 28.0517 38.7324C27.035 38.8136 26.1577 38.4261 25.6417 37.3574L25.6341 37.3529C25.3125 36.7388 25.4503 35.7834 25.7198 34.7652C25.9893 33.7424 26.3751 32.7058 26.4287 31.8591C26.4854 30.7659 26.5451 29.815 26.7273 29.0816C26.911 28.3696 27.1989 27.8613 27.7088 27.575L27.7777 27.5413V27.5382ZM11.2184 27.6133H11.2337C11.3148 27.6133 11.3945 27.6209 11.474 27.6347C12.0498 27.7189 12.555 28.1446 13.0404 28.7861L14.4338 31.3339L14.4384 31.3385C14.8104 32.1546 15.5928 32.9677 16.2589 33.8465C16.9234 34.7621 17.4379 35.5782 17.3751 36.2504V36.2596C17.2878 37.3988 16.6417 38.0173 15.6525 38.2409C14.665 38.4476 13.3252 38.244 11.9855 37.5304C10.5033 36.7097 8.74252 36.8123 7.61102 36.6087C7.04603 36.5076 6.67546 36.3009 6.50401 35.9947C6.33404 35.69 6.33097 35.0745 6.69231 34.1114V34.1068L6.69539 34.1022C6.87455 33.5908 6.74133 32.9493 6.65405 32.3889C6.56984 31.7749 6.52694 31.3033 6.71988 30.9496C6.96486 30.4382 7.32621 30.3387 7.77484 30.1335C8.22654 29.9268 8.7563 29.8242 9.17737 29.4154H9.18044V29.4108C9.57239 29.0005 9.8618 28.4906 10.2032 28.1277C10.4941 27.82 10.7851 27.6132 11.2183 27.6132M22.1798 13.7196C21.5137 14.0274 20.7328 14.5388 19.9014 14.5388C19.0716 14.5388 18.4162 14.13 17.9431 13.8253C17.7058 13.6201 17.5144 13.4149 17.3704 13.3124C17.1193 13.1072 17.15 12.801 17.2572 12.801C17.4241 12.8255 17.4546 13.0077 17.5619 13.1087C17.7088 13.2098 17.8911 13.4134 18.1146 13.6186C18.5601 13.9248 19.1558 14.3336 19.8999 14.3336C20.6425 14.3336 21.5122 13.9248 22.0404 13.6201C22.339 13.4134 22.7218 13.1087 23.0326 12.9051C23.2715 12.6953 23.2607 12.4947 23.4598 12.4947C23.6573 12.5192 23.5119 12.6999 23.2347 13.0046C22.8951 13.2615 22.5425 13.5006 22.1782 13.7212V13.7196L22.1798 13.7196ZM20.5231 11.2944V11.2606C20.5139 11.2315 20.543 11.1963 20.5675 11.1841C20.6808 11.1182 20.8431 11.1427 20.9656 11.1902C21.062 11.1902 21.2105 11.2928 21.1953 11.3969C21.186 11.4719 21.0651 11.498 20.9886 11.498C20.9043 11.498 20.8477 11.4321 20.7726 11.3939C20.693 11.3663 20.5491 11.3816 20.5231 11.2943M19.6794 11.2943C19.6488 11.3831 19.5064 11.3693 19.4252 11.3953C19.3533 11.4336 19.2936 11.4994 19.2124 11.4994C19.1343 11.4994 19.0118 11.4703 19.0027 11.3953C18.9889 11.2943 19.1374 11.1917 19.2323 11.1917C19.3563 11.1442 19.514 11.1197 19.6289 11.184C19.658 11.1978 19.684 11.23 19.6748 11.2606V11.2928H19.6794L19.6794 11.2943Z" fill="#9FEF00"/>
</svg>
