<svg width="42" height="42" viewBox="0 0 42 42" fill="none" xmlns="http://www.w3.org/2000/svg">
<path d="M30.0878 16.7213C27.8758 6.95625 22.6468 3.74675 22.085 2.52C21.595 1.8305 21.1575 0.8505 20.7988 0C20.7358 0.86625 20.7025 1.19875 19.8835 2.072C18.6183 3.0625 12.117 8.5155 11.5885 19.607C11.095 29.953 19.061 36.1182 20.1425 36.904L20.265 36.9915C20.49 38.6571 20.6825 40.3269 20.8425 42H21.6843C21.8854 40.1945 22.1833 38.4011 22.5768 36.6275C23.3065 36.1095 23.6338 35.8172 24.0643 35.4147C26.1031 33.5289 27.7234 31.2361 28.8204 28.6846C29.9174 26.1331 30.4666 23.3798 30.4325 20.6027C30.45 19.1782 30.2523 17.6943 30.0878 16.7213ZM20.7498 31.0625C20.7498 31.0625 20.7498 16.5532 21.231 16.555C21.6038 16.555 22.0885 35.2713 22.0885 35.2713C21.4218 35.1925 20.7498 32.1912 20.7498 31.0625Z" fill="#9CA3AF"/>
</svg>
