<svg width="42" height="42" viewBox="0 0 42 42" fill="none" xmlns="http://www.w3.org/2000/svg">
<g clip-path="url(#clip0_232_37)">
<path d="M32.1562 0H9.84375C4.4072 0 0 4.4072 0 9.84375V32.1562C0 37.5928 4.4072 42 9.84375 42H32.1562C37.5928 42 42 37.5928 42 32.1562V9.84375C42 4.4072 37.5928 0 32.1562 0Z" fill="#9CA3AF"/>
<mask id="mask0_232_37" style="mask-type:luminance" maskUnits="userSpaceOnUse" x="6" y="6" width="30" height="30">
<path d="M6.23438 6.23438H35.7656V35.7656H6.23438V6.23438Z" fill="white"/>
</mask>
<g mask="url(#mask0_232_37)">
<path fill-rule="evenodd" clip-rule="evenodd" d="M33.4361 29.2376C31.8299 29.193 30.5839 29.3575 29.5396 29.7969C29.2389 29.9176 28.7564 29.9176 28.7167 30.2961C28.8775 30.4549 28.8968 30.7148 29.0377 30.935C29.2784 31.3345 29.7007 31.8726 30.082 32.1518L31.3673 33.0702C32.1505 33.5488 33.0341 33.8285 33.7972 34.3076C34.2392 34.5872 34.6808 34.9465 35.1228 35.2462C35.3479 35.4058 35.4843 35.6659 35.7656 35.7651V35.7048C35.6252 35.5258 35.5847 35.2664 35.4447 35.0659L34.8415 34.4874C34.2595 33.7091 33.536 33.0299 32.7528 32.4716C32.11 32.0324 30.7046 31.4337 30.4434 30.6956L30.4039 30.6508C30.8451 30.6062 31.3673 30.4508 31.7894 30.3311C32.4727 30.1521 33.0948 30.1914 33.7972 30.012L34.7619 29.7324V29.5534C34.4003 29.1943 34.1393 28.715 33.758 28.3761C32.7339 27.4979 31.6084 26.6393 30.4434 25.9209C29.821 25.5219 29.0174 25.2619 28.3548 24.9232C28.1131 24.8033 27.712 24.7434 27.5715 24.5439C27.2091 24.1055 27.0088 23.5261 26.7478 23.0068L25.1011 19.5339C24.7396 18.7555 24.5182 17.977 24.077 17.2586C22.008 13.8653 19.7582 11.8097 16.3037 9.79339C15.561 9.37421 14.6774 9.19391 13.7378 8.97472L12.2317 8.89433C11.9098 8.75471 11.5887 8.37523 11.3075 8.19542C10.1627 7.47683 7.21021 5.9202 6.36595 7.9718C5.82372 9.26905 7.16969 10.5463 7.6266 11.2053C7.96867 11.6644 8.40984 12.1831 8.6515 12.7022C8.78653 13.0413 8.83164 13.401 8.97257 13.7603C9.29348 14.6383 9.59503 15.6168 10.0168 16.4355C10.2419 16.8546 10.4783 17.2943 10.7595 17.6733C10.9203 17.8969 11.2017 17.9927 11.2616 18.3519C10.9802 18.7514 10.9608 19.3495 10.8001 19.8493C10.0767 22.1048 10.3581 24.8991 11.3822 26.5598C11.704 27.0585 12.4625 28.1567 13.4917 27.7372C14.3955 27.3779 14.1939 26.2403 14.4549 25.2422C14.5156 25.003 14.4752 24.8432 14.5953 24.683V24.7278L15.4191 26.3844C16.0417 27.3624 17.1266 28.3805 18.03 29.0596C18.5117 29.4189 18.8934 30.038 19.4957 30.2572V30.1969H19.4562C19.3354 30.0179 19.1545 29.9373 18.9938 29.7977C18.6324 29.4386 18.2308 28.9992 17.9494 28.6002C17.1063 27.4826 16.3636 26.2448 15.7004 24.9675C15.3787 24.3489 15.0974 23.6701 14.8372 23.0514C14.7156 22.8117 14.7156 22.452 14.5153 22.333C14.2135 22.7714 13.7726 23.1517 13.5506 23.6903C13.1688 24.5483 13.1293 25.6064 12.9888 26.7043C12.9078 26.7243 12.9437 26.7043 12.9078 26.7489C12.2658 26.5898 12.0443 25.9302 11.8036 25.3719C11.2012 23.9548 11.1003 21.6794 11.6225 20.0425C11.7629 19.6234 12.3662 18.3059 12.1254 17.9068C12.004 17.5275 11.6032 17.3083 11.3817 17.0085C11.1206 16.6292 10.8403 16.1505 10.6593 15.7313C10.1776 14.6129 9.93677 13.3759 9.41406 12.2581C9.1724 11.739 8.75109 11.1999 8.40935 10.7213C8.02757 10.1822 7.60675 9.80274 7.30521 9.16437C7.2048 8.94076 7.06436 8.58556 7.22498 8.3457C7.26468 8.18607 7.34556 8.12208 7.50553 8.08632C7.76639 7.86254 8.51024 8.1462 8.77127 8.26515C9.51398 8.56489 10.1366 8.84412 10.7592 9.26281C11.0406 9.46231 11.3421 9.84179 11.7036 9.94203H12.1259C12.7687 10.0815 13.4912 9.98666 14.093 10.1656C15.1577 10.5056 16.1214 11.004 16.9857 11.5434C19.6165 13.2001 21.7862 15.5554 23.2518 18.3702C23.4926 18.8293 23.593 19.2485 23.8145 19.7275C24.2368 20.706 24.759 21.7037 25.1798 22.6623C25.6021 23.6004 26.0036 24.5592 26.606 25.3375C26.9076 25.7567 28.1121 25.9759 28.6542 26.1955C29.0561 26.3745 29.6782 26.5356 30.0407 26.7548C30.723 27.174 31.406 27.6531 32.0483 28.1121C32.3692 28.351 33.3741 28.8502 33.4338 29.2484L33.4361 29.2376ZM12.954 11.8924C12.6766 11.89 12.4001 11.9236 12.1313 11.9922V12.0369H12.1708C12.3316 12.3564 12.613 12.5761 12.8136 12.8556L13.2759 13.8137L13.3156 13.7691C13.5968 13.5696 13.7378 13.2502 13.7378 12.7716C13.6172 12.632 13.5973 12.4919 13.4969 12.3523C13.3763 12.1528 13.1153 12.0525 12.954 11.8934V11.8924Z" fill="#141D2B"/>
</g>
</g>
<defs>
<clipPath id="clip0_232_37">
<rect width="42" height="42" fill="white"/>
</clipPath>
</defs>
</svg>
