<svg width="32" height="32" viewBox="0 0 32 32" fill="none" xmlns="http://www.w3.org/2000/svg">
<g clip-path="url(#clip0_24_6)">
<mask id="mask0_24_6" style="mask-type:luminance" maskUnits="userSpaceOnUse" x="0" y="0" width="32" height="32">
<path d="M15.9999 31.6667C24.6524 31.6667 31.6666 24.6525 31.6666 16C31.6666 7.34757 24.6524 0.333374 15.9999 0.333374C7.34745 0.333374 0.333252 7.34757 0.333252 16C0.333252 24.6525 7.34745 31.6667 15.9999 31.6667Z" fill="white"/>
</mask>
<g mask="url(#mask0_24_6)">
<path d="M15.9999 31.6667C24.6524 31.6667 31.6666 24.6525 31.6666 16C31.6666 7.34757 24.6524 0.333374 15.9999 0.333374C7.34745 0.333374 0.333252 7.34757 0.333252 16C0.333252 24.6525 7.34745 31.6667 15.9999 31.6667Z" fill="#ADADAD"/>
<path d="M26.3589 27.7535L12.3692 9.7334H9.7334V22.2615H11.8421V12.4113L24.7036 29.0286C25.284 28.6403 25.8368 28.214 26.3589 27.7535Z" fill="url(#paint0_linear_24_6)"/>
<path d="M22.4409 9.7334H20.3521V22.2667H22.4409V9.7334Z" fill="url(#paint1_linear_24_6)"/>
</g>
</g>
<defs>
<linearGradient id="paint0_linear_24_6" x1="934.65" y1="1097.7" x2="1489.85" y2="1785.83" gradientUnits="userSpaceOnUse">
<stop stop-color="#141D2B"/>
<stop offset="1" stop-color="white" stop-opacity="0"/>
</linearGradient>
<linearGradient id="paint1_linear_24_6" x1="124.796" y1="9.7334" x2="121.298" y2="930.137" gradientUnits="userSpaceOnUse">
<stop stop-color="#141D2B"/>
<stop offset="1" stop-color="white" stop-opacity="0"/>
</linearGradient>
<clipPath id="clip0_24_6">
<rect width="32" height="32" fill="white"/>
</clipPath>
</defs>
</svg>
