<svg width="32" height="32" viewBox="0 0 32 32" fill="none" xmlns="http://www.w3.org/2000/svg">
<path d="M15.8188 25.6037C15.7159 25.6037 15.613 25.5743 15.5199 25.5253L14.5791 24.9667C14.437 24.8883 14.5056 24.8589 14.5546 24.8442C14.7408 24.7805 14.78 24.7658 14.9809 24.6482C15.0005 24.6384 15.0299 24.6433 15.0495 24.6531L15.7747 25.0843C15.7992 25.099 15.8384 25.099 15.8629 25.0843L18.6951 23.4477C18.7196 23.433 18.7392 23.4036 18.7392 23.3693V20.101C18.7392 20.0667 18.7245 20.0373 18.6951 20.0226L15.8629 18.3909C15.8384 18.3762 15.8041 18.3762 15.7747 18.3909L12.9425 20.0226C12.9131 20.0373 12.8984 20.0716 12.8984 20.101V23.3693C12.8984 23.3987 12.918 23.4281 12.9425 23.4428L13.7167 23.8887C14.1381 24.0993 14.3978 23.8495 14.3978 23.6045V20.3754C14.3978 20.3313 14.4321 20.2921 14.4811 20.2921H14.8388C14.8829 20.2921 14.9221 20.3264 14.9221 20.3754V23.6045C14.9221 24.1679 14.6183 24.4865 14.0842 24.4865C13.9225 24.4865 13.7902 24.4865 13.4325 24.3101L12.6877 23.8838C12.5064 23.776 12.3888 23.58 12.3888 23.3693V20.101C12.3888 19.8903 12.5015 19.6894 12.6877 19.5865L15.5199 17.9499C15.7012 17.847 15.9364 17.847 16.1128 17.9499L18.945 19.5865C19.1263 19.6943 19.2439 19.8903 19.2439 20.101V23.3693C19.2439 23.58 19.1312 23.7809 18.945 23.8838L16.1128 25.5204C16.0295 25.5743 15.9266 25.6037 15.8188 25.6037ZM18.1071 22.3794C18.1071 21.7669 17.6955 21.6053 16.8233 21.4876C15.9413 21.37 15.8531 21.3113 15.8531 21.1055C15.8531 20.934 15.9266 20.7086 16.5783 20.7086C17.1614 20.7086 17.377 20.836 17.4652 21.228C17.475 21.2672 17.5044 21.2917 17.5436 21.2917H17.9111C17.9356 21.2917 17.9552 21.2819 17.9699 21.2672C17.9846 21.2476 17.9944 21.228 17.9895 21.2035C17.9307 20.5273 17.4848 20.2137 16.5783 20.2137C15.7698 20.2137 15.2896 20.5567 15.2896 21.1251C15.2896 21.7474 15.7698 21.914 16.544 21.9924C17.4701 22.0855 17.5436 22.2178 17.5436 22.3991C17.5436 22.7176 17.2888 22.8499 16.691 22.8499C15.9413 22.8499 15.7747 22.6637 15.7208 22.2913C15.7159 22.2521 15.6816 22.2227 15.6375 22.2227H15.27C15.2259 22.2227 15.1867 22.257 15.1867 22.306C15.1867 22.7812 15.4464 23.3497 16.6861 23.3497C17.5926 23.3497 18.1071 22.9968 18.1071 22.3794ZM20.7776 19.9246C20.7776 20.2235 20.5326 20.4685 20.2337 20.4685C19.9348 20.4685 19.6898 20.2235 19.6898 19.9246C19.6898 19.6159 19.9446 19.3807 20.2337 19.3807C20.5277 19.3758 20.7776 19.6159 20.7776 19.9246ZM20.6894 19.9246C20.6894 19.6698 20.4836 19.4689 20.2288 19.4689C19.9789 19.4689 19.7731 19.6698 19.7731 19.9246C19.7731 20.1794 19.9789 20.3852 20.2288 20.3852C20.4836 20.3803 20.6894 20.1745 20.6894 19.9246ZM20.4689 20.2284H20.3415C20.3366 20.199 20.317 20.0422 20.317 20.0373C20.3072 20.003 20.2974 19.9834 20.2533 19.9834H20.1455V20.2284H20.0279V19.6159H20.2386C20.3121 19.6159 20.4542 19.6159 20.4542 19.7776C20.4542 19.8903 20.3807 19.9148 20.3366 19.9295C20.4199 19.9344 20.4248 19.9883 20.4395 20.0667C20.4444 20.1157 20.4542 20.199 20.4689 20.2284ZM20.3317 19.7972C20.3317 19.7139 20.2729 19.7139 20.2435 19.7139H20.1455V19.8854H20.2386C20.317 19.8854 20.3317 19.8315 20.3317 19.7972ZM7.04777 12.8147C7.04777 12.6824 6.97917 12.5648 6.86647 12.5011L3.86277 10.7714C3.81377 10.742 3.75497 10.7273 3.69617 10.7224H3.66677C3.60797 10.7224 3.55407 10.742 3.50017 10.7714L0.501368 12.5011C0.388668 12.5648 0.320068 12.6873 0.320068 12.8147L0.324968 17.4697C0.324968 17.5333 0.359268 17.5922 0.413168 17.6265C0.467068 17.6608 0.535668 17.6608 0.594468 17.6265L2.37807 16.6024C2.49077 16.5338 2.55937 16.4162 2.55937 16.2888V14.1132C2.55937 13.9858 2.62797 13.8633 2.74067 13.7996L3.50017 13.3635C3.55897 13.3292 3.61777 13.3145 3.68147 13.3145C3.74517 13.3145 3.80887 13.3292 3.86277 13.3635L4.62227 13.7996C4.73497 13.8633 4.80357 13.9858 4.80357 14.1132V16.2888C4.80357 16.4162 4.87217 16.5387 4.98487 16.6024L6.76847 17.6265C6.82237 17.6608 6.89587 17.6608 6.94977 17.6265C7.00367 17.5971 7.03797 17.5333 7.03797 17.4697L7.04777 12.8147ZM23.4726 7.73335V16.377C23.4726 16.5044 23.404 16.6269 23.2913 16.6905L20.2876 18.4251C20.1749 18.4888 20.0377 18.4888 19.925 18.4251L16.9213 16.6905C16.8086 16.6269 16.74 16.5044 16.74 16.377V12.9078C16.74 12.7804 16.8086 12.6579 16.9213 12.5942L19.925 10.8596C20.0377 10.7959 20.1749 10.7959 20.2876 10.8596L21.0373 11.2908C21.1206 11.3398 21.2284 11.2761 21.2284 11.183V6.57695C21.2284 6.43975 21.3754 6.35155 21.4979 6.42015L23.2864 7.41975C23.3991 7.47855 23.4726 7.60105 23.4726 7.73335ZM21.2186 14.0495C21.2186 14.0152 21.199 13.9858 21.1745 13.9711L20.1455 13.3733C20.1161 13.3586 20.0818 13.3586 20.0524 13.3733L19.0234 13.9711C18.994 13.9858 18.9793 14.0152 18.9793 14.0495V15.2402C18.9793 15.2745 18.9989 15.3039 19.0234 15.3186L20.0524 15.9115C20.0818 15.9262 20.1161 15.9262 20.1406 15.9115L21.1696 15.3186C21.199 15.3039 21.2137 15.2745 21.2137 15.2402V14.0495H21.2186ZM31.4988 14.0152C31.6115 13.9515 31.6801 13.829 31.6801 13.7016V12.8637C31.6801 12.7363 31.6115 12.6138 31.4988 12.5501L28.5147 10.8155C28.402 10.7518 28.2648 10.7518 28.1521 10.8155L25.1484 12.5501C25.0357 12.6138 24.9671 12.7363 24.9671 12.8637V16.3329C24.9671 16.4652 25.0357 16.5828 25.1484 16.6465L28.1325 18.3468C28.2403 18.4104 28.3775 18.4104 28.4902 18.3468L30.2934 17.3423C30.4159 17.2737 30.4159 17.0972 30.2934 17.0287L27.2701 15.2941C27.2113 15.2598 27.177 15.201 27.177 15.1373V14.0495C27.177 13.9858 27.2113 13.927 27.2701 13.8927L28.2109 13.3488C28.2648 13.3145 28.3383 13.3145 28.3922 13.3488L29.333 13.8927C29.3869 13.927 29.4261 13.9858 29.4261 14.0495V14.9021C29.4261 15.0393 29.578 15.1274 29.7005 15.0589L31.4988 14.0152ZM27.7111 14.1867C27.6915 14.2014 27.6768 14.221 27.6768 14.2455V14.9119C27.6768 14.9364 27.6915 14.9609 27.7111 14.9707L28.2893 15.3039C28.3089 15.3186 28.3383 15.3186 28.3579 15.3039L28.9361 14.9707C28.9557 14.956 28.9704 14.9364 28.9704 14.9119V14.2455C28.9704 14.221 28.9557 14.1965 28.9361 14.1867L28.3579 13.8535C28.3383 13.8388 28.3089 13.8388 28.2893 13.8535L27.7111 14.1867ZM15.2553 16.3182V12.8686C15.2553 12.7412 15.1769 12.6187 15.0642 12.555L12.0703 10.8302C11.9674 10.7714 11.8253 10.7616 11.7077 10.8302L8.71377 12.555C8.60107 12.6187 8.52267 12.7363 8.52267 12.8686V16.3182C8.52267 16.4554 8.61577 16.573 8.71867 16.6318L11.7175 18.3566C11.8351 18.4251 11.9723 18.4202 12.0801 18.3566L15.0691 16.6318C15.1573 16.5828 15.221 16.4995 15.2455 16.4015C15.2504 16.377 15.2553 16.3476 15.2553 16.3182ZM11.6146 10.1981L11.5754 10.2226H11.6293L11.6146 10.1981ZM15.3484 16.5779L15.3288 16.5436V16.5877L15.3484 16.5779Z" fill="#ADADAD"/>
</svg>
