<svg width="32" height="32" viewBox="0 0 32 32" fill="none" xmlns="http://www.w3.org/2000/svg">
<path d="M13.7534 6.50133L8.4065 3.80227L2.5385 6.73093L8.02996 9.48867L13.7534 6.50133ZM16.2042 7.73827L21.8102 10.568L15.994 13.4888L10.494 10.7264L16.2042 7.73827ZM23.6913 3.8432L29.4504 6.73093L24.2997 9.31787L18.6822 6.48427L23.6913 3.8432ZM21.2126 2.59933L16.0281 0L10.899 2.55907L16.2414 5.25347L21.2126 2.59933ZM17.1592 24.9251V32L23.4401 28.8657L23.433 21.7877L17.1592 24.9251ZM23.4308 19.3175L23.4238 12.3137L17.1592 15.4279V22.434L23.4308 19.3175ZM30.9712 18.0048V25.1075L25.6141 27.7811L25.6102 20.7107L30.9712 18.0048ZM30.9712 15.5213V8.56187L25.6041 11.2299L25.6086 18.2476L30.9712 15.5213ZM14.9417 15.428L10.7112 13.3008V22.4941C10.7112 22.4941 5.5373 11.4856 5.05796 10.4968C4.99623 10.3692 4.74183 10.2292 4.6769 10.1952C3.74916 9.70827 1.03076 8.33133 1.03076 8.33133V24.5733L4.7913 26.5835V18.0936C4.7913 18.0936 9.91023 27.9303 9.96196 28.0376C10.0138 28.1452 10.528 29.1819 11.0769 29.5461C11.8082 30.0301 14.9425 31.9149 14.9425 31.9149L14.9417 15.428Z" fill="#9FEF00"/>
</svg>
