<svg width="32" height="32" viewBox="0 0 32 32" fill="none" xmlns="http://www.w3.org/2000/svg">
<path d="M10.7522 20.3263C10.9384 20.3214 11.8694 20.2577 12.0066 20.2185C11.889 20.0911 9.87017 20.1695 8.67457 17.7881C8.46387 17.3667 8.30707 16.9257 8.36097 16.4357C8.50307 15.1862 9.97307 14.9657 10.909 15.5292C12.673 16.5876 14.0107 20.0029 16.4803 20.3067C18.2933 20.5272 20.6257 19.4737 21.7821 18.0821C21.7527 18.0772 21.7429 18.0723 21.7331 18.0772C21.7135 18.0821 21.6939 18.087 21.6792 18.0919C20.0475 18.6848 17.0585 18.5672 15.0789 17.3667C13.2365 16.2495 12.477 14.4904 12.5407 13.7113C12.6289 12.6676 13.6628 12.5745 14.2998 12.7509C15.0054 12.942 15.4954 13.6133 16.2059 14.0935C16.9703 14.6031 17.818 14.7648 18.7196 14.5982C19.4497 14.4659 20.4052 13.9955 20.5081 13.8877C20.4542 13.8828 20.4199 13.8828 20.3856 13.8779C20.0818 13.8485 19.778 13.8387 19.4791 13.7946C14.0303 12.9861 13.163 5.77816 7.10657 5.31266C4.93587 5.14606 2.23597 5.70956 0.427868 7.02766C0.388668 7.05706 0.354368 7.08646 0.320068 7.11586C0.324968 7.12566 0.324968 7.13056 0.329868 7.14036C0.369068 7.14036 0.408268 7.13546 0.447468 7.13056C0.756168 7.08156 1.05997 7.09136 1.36377 7.14526C2.52997 7.35596 3.70107 8.27715 4.10287 10.8938C4.36257 12.5745 4.06857 13.383 4.49487 15.1127C5.42587 18.8906 8.95387 20.3851 10.7522 20.3263ZM4.00977 6.63566C3.96567 6.58666 3.96567 6.57686 3.94607 6.53766C4.53897 6.41026 5.13187 6.33676 5.73947 6.30246C5.68557 7.02276 4.65167 7.34616 4.00977 6.63566ZM13.6579 23.8102C11.5607 23.869 9.14987 22.5019 7.60637 20.8016C7.38097 20.5566 6.78317 19.8118 6.69497 19.655L6.71457 19.6354C7.03797 19.8363 7.97387 20.5468 9.39977 20.9584C10.5856 21.3014 11.7567 21.2671 12.9082 20.7967C14.0205 20.341 14.9172 20.7722 15.0201 20.9388C14.1136 21.125 14.0352 21.1544 13.8441 21.3259C13.5942 21.5415 13.6187 21.8992 14.1871 22.1687C15.4709 22.7763 17.2741 22.0315 18.9499 23.4133C19.0675 23.5113 19.3468 23.7955 19.4448 23.9376C19.4399 23.9474 19.4301 23.9523 19.4252 23.9621C19.19 23.8886 18.6216 23.5946 17.4554 23.5064C16.2451 23.4084 15.1867 23.7661 13.6579 23.8102ZM22.2231 11.4622C23.0267 11.2074 24.2468 10.8056 25.4816 11.3005C26.2705 11.619 26.7654 12.2168 27.0545 12.9959C27.226 13.4565 27.3044 13.9612 27.3044 14.4022C27.2946 14.4022 27.2848 14.4022 27.275 14.4071C27.2652 14.3875 27.2554 14.363 27.2505 14.3434C27.0055 13.2654 25.7854 12.1972 23.9381 12.8783C21.4783 13.7897 17.5485 13.3536 15.27 10.5263C15.2357 10.4822 15.1524 10.443 15.2063 10.3695C15.2112 10.3597 15.3092 10.3989 15.3533 10.4332C16.2402 11.0898 17.23 11.5063 18.308 11.717C19.8025 12.0159 20.9834 11.8591 22.2231 11.4622ZM27.2554 17.2197C25.6678 17.2295 25.5992 19.6746 22.179 20.3753C21.2872 20.5566 20.2827 20.6007 19.9789 20.5811V20.5615C20.1161 20.488 20.6992 20.4341 21.4342 19.7481C21.8213 19.3904 22.1839 19.0082 22.5514 18.626C23.5069 17.6362 24.58 16.5582 26.5645 16.715C27.6964 16.8032 28.0002 17.1168 28.3334 17.3373C28.3481 17.3471 28.353 17.3618 28.3677 17.3814C28.3432 17.3814 28.3334 17.3863 28.3236 17.3814C27.9806 17.2491 27.6229 17.2197 27.2554 17.2197ZM26.6527 16.0388C26.6478 16.0486 26.6478 16.0584 26.6429 16.0682C25.2268 15.8526 24.2909 15.6811 23.2864 16.2642C22.4534 16.7493 21.7478 17.2687 20.2484 17.4598C18.9205 17.6264 18.0385 17.5774 17.0095 17.0678C16.9948 17.058 16.9801 17.0482 16.9605 17.0384C16.9605 17.0286 16.9654 17.0237 16.9654 17.0139C18.1855 17.2001 18.749 17.2638 19.6849 16.7297C20.7776 16.0976 21.6498 15.4263 23.1786 15.2107C24.629 15.0098 25.6923 15.3332 26.6527 16.0388ZM13.4815 8.22326C13.4521 8.19386 13.4276 8.16446 13.3786 8.11056C13.751 8.11056 14.8339 8.05175 15.9952 8.52215C16.9605 8.91415 17.573 9.55116 18.455 10.1343C18.9989 10.492 19.6016 10.59 20.2386 10.5312C20.4493 10.5116 20.6551 10.4724 20.8658 10.4479C20.8854 10.443 20.9099 10.4479 20.9393 10.4626C20.9099 10.4822 20.8805 10.5067 20.8511 10.5214C20.4542 10.7174 20.0328 10.8301 19.5967 10.8693C18.3178 10.9967 17.132 10.688 16.0001 10.1147C15.0544 9.62956 14.2165 8.99256 13.4815 8.22326ZM31.6801 19.9049C31.5086 20.0568 30.5678 20.4733 29.5878 20.1646C28.9851 19.9735 28.6323 19.4345 28.0394 18.9837C27.5494 18.6113 27.0153 18.5966 26.6625 18.5721C26.6919 18.5329 26.7066 18.5133 26.7213 18.5035C27.4465 18.0527 28.2158 17.9057 29.039 18.185C29.6515 18.3908 29.9798 18.8465 30.5286 19.3708C31.0578 19.8804 31.5576 19.8559 31.6605 19.8853C31.6654 19.8804 31.6703 19.8853 31.6801 19.9049ZM21.2676 26.6179C21.3754 26.6767 21.346 26.6914 21.3411 26.7159C20.4346 26.6473 19.68 26.3435 19.0479 25.6281C17.9797 24.4178 17.0046 24.261 16.6665 24.1728C16.691 24.163 16.7057 24.1532 16.7204 24.1532C17.3623 24.1581 17.9993 24.1875 18.6265 24.3443C19.8662 24.6579 20.3415 25.5889 20.6649 26.074C20.8217 26.3092 21.0226 26.4807 21.2676 26.6179Z" fill="#9FEF00"/>
</svg>
