<svg width="32" height="32" viewBox="0 0 32 32" fill="none" xmlns="http://www.w3.org/2000/svg">
<g clip-path="url(#clip0_24_22)">
<path d="M31.1051 12.1146C30.5661 9.95171 29.5441 8.32076 27.3672 8.32076H24.5603V11.6386C24.5603 14.2146 22.3764 16.3845 19.8845 16.3845H12.4087C10.3648 16.3845 8.67083 18.1344 8.67083 20.1854V27.3111C8.67083 29.341 10.4348 30.531 12.4087 31.112C14.7746 31.805 17.0495 31.931 19.8845 31.112C21.7674 30.566 23.6223 29.467 23.6223 27.3111V24.4622H16.1536V23.5102H27.3672C29.5441 23.5102 30.3491 21.9913 31.1051 19.7164C31.889 17.3715 31.854 15.1175 31.1051 12.1146ZM20.3534 26.3591C21.1304 26.3591 21.7604 26.9961 21.7604 27.7801C21.7604 28.5711 21.1304 29.208 20.3534 29.208C19.5835 29.208 18.9465 28.5641 18.9465 27.7801C18.9535 26.9891 19.5835 26.3591 20.3534 26.3591ZM12.0657 15.4465H19.5415C21.6204 15.4465 23.2793 13.7316 23.2793 11.6456V4.5129C23.2793 2.48296 21.5714 0.964019 19.5415 0.621026C17.0355 0.20804 14.3126 0.22904 12.0657 0.628026C8.90183 1.188 8.32785 2.35697 8.32785 4.5199V7.3688H15.8106V8.32076H5.52094C3.34402 8.32076 1.44008 9.62972 0.845105 12.1146C0.159126 14.9635 0.131126 16.7415 0.845105 19.7164C1.37708 21.9283 2.64404 23.5102 4.82097 23.5102H7.38988V20.0944C7.38988 17.6234 9.5248 15.4465 12.0657 15.4465ZM11.5967 5.46486C10.8198 5.46486 10.1898 4.82788 10.1898 4.04391C10.1968 3.25294 10.8198 2.61596 11.5967 2.61596C12.3667 2.61596 13.0037 3.25993 13.0037 4.04391C13.0037 4.82789 12.3737 5.46486 11.5967 5.46486Z" fill="#9FEF00"/>
</g>
<defs>
<clipPath id="clip0_24_22">
<rect width="32" height="32" fill="white"/>
</clipPath>
</defs>
</svg>
