<svg width="43" height="42" viewBox="0 0 43 42" fill="none" xmlns="http://www.w3.org/2000/svg">
<path d="M19.5802 15.3134C19.025 15.634 18.5774 16.1119 18.2939 16.6868C18.0104 17.2617 17.9038 17.9078 17.9874 18.5434C18.0711 19.1789 18.3413 19.7754 18.764 20.2573C19.1866 20.7393 19.7426 21.0851 20.3618 21.2511C20.981 21.417 21.6355 21.3957 22.2425 21.1897C22.8495 20.9837 23.3818 20.6024 23.7721 20.0939C24.1624 19.5854 24.3932 18.9725 24.4352 18.3329C24.4773 17.6933 24.3287 17.0555 24.0083 16.5003C23.7955 16.1316 23.5122 15.8084 23.1745 15.5492C22.8368 15.2899 22.4513 15.0998 22.0401 14.9896C21.6289 14.8794 21.2 14.8512 20.7779 14.9068C20.3558 14.9624 19.9488 15.1005 19.5802 15.3134ZM34.1078 18.8305C33.8948 18.5873 33.6704 18.3435 33.4345 18.0991C33.599 17.9249 33.7587 17.7513 33.9136 17.5783C36.8264 14.3044 38.0568 11.0196 36.9171 9.04685C35.8246 7.154 32.5742 6.58959 28.5036 7.38085C28.1031 7.45949 27.7045 7.54782 27.3076 7.64581C27.2314 7.38448 27.151 7.12436 27.0663 6.86545C25.6852 2.70408 23.4548 -0.0018139 21.1754 9.1232e-07C18.9904 9.1232e-07 16.8779 2.5353 15.5295 6.45711C15.3964 6.84427 15.2736 7.23385 15.1611 7.62585C14.8961 7.56052 14.63 7.50003 14.3626 7.44437C10.0687 6.56419 6.6115 7.14493 5.47361 9.12126C4.38291 11.0141 5.52261 14.112 8.24665 17.2371C8.51766 17.5456 8.79593 17.8481 9.08146 18.1445C8.74391 18.4905 8.42632 18.836 8.12869 19.1808C5.46998 22.2623 4.39561 25.3076 5.4845 27.1932C6.60969 29.1423 10.0179 29.7793 14.1684 28.9626C14.5047 28.8961 14.8393 28.8211 15.172 28.7376C15.293 29.1623 15.4267 29.5839 15.5731 30.0025C16.916 33.8445 19.0158 36.2963 21.1935 36.2963C23.4439 36.2963 25.6979 33.6594 27.0645 29.6559C27.1721 29.3389 27.2744 29.0116 27.3712 28.6741C27.8007 28.7805 28.2332 28.8749 28.6688 28.9572C32.6668 29.714 35.8409 29.1205 36.928 27.2331C38.0514 25.2822 36.8917 22.0119 34.1078 18.8305ZM6.81657 9.89437C7.51709 8.67844 10.3428 8.20296 14.0504 8.96519C14.2876 9.01358 14.5289 9.06803 14.7745 9.12852C14.4123 10.7299 14.1565 12.3534 14.0087 13.9886C12.672 14.9292 11.3972 15.9549 10.1921 17.0593C9.92717 16.7846 9.66886 16.5033 9.4172 16.2154C7.08154 13.5403 6.15961 11.0359 6.81657 9.89437ZM13.8708 20.2896C12.9452 19.5873 12.0832 18.8686 11.301 18.1463C12.0814 17.4277 12.9434 16.7126 13.8689 16.0121C13.8351 16.7247 13.8187 17.438 13.8199 18.1518C13.8199 18.8656 13.8369 19.5782 13.8708 20.2896ZM13.8708 27.44C12.2979 27.7919 10.6735 27.8497 9.07965 27.6106C8.64276 27.576 8.21758 27.4524 7.83026 27.2473C7.44294 27.0423 7.10167 26.7601 6.82746 26.4183C6.16506 25.2749 7.02891 22.8286 9.30287 20.1934C9.5884 19.8631 9.88361 19.5413 10.1885 19.228C11.3937 20.3395 12.6711 21.3701 14.0123 22.3132C14.1624 23.9688 14.4206 25.613 14.7854 27.2349C14.483 27.3112 14.1775 27.3801 13.8689 27.4418M26.7541 12.8525C26.1456 12.469 25.5297 12.0982 24.9066 11.74C24.292 11.3868 23.6708 11.0462 23.0428 10.7183C24.0755 10.2831 25.1287 9.89852 26.1988 9.56589C26.4397 10.6513 26.6251 11.7482 26.7541 12.8525ZM16.9977 6.95982C18.1519 3.60241 19.8615 1.55167 21.179 1.55167C22.5819 1.54985 24.4039 3.76211 25.5963 7.35363C25.6737 7.58835 25.7463 7.82427 25.8141 8.06141C24.2489 8.5466 22.7175 9.13467 21.2298 9.82178C19.7473 9.12583 18.2194 8.53103 16.6565 8.04145C16.7618 7.67848 16.8755 7.31794 16.9977 6.95982ZM16.2718 9.54411C17.3375 9.87855 18.3855 10.2674 19.4114 10.7092C18.1386 11.365 16.8997 12.0794 15.6946 12.8525C15.8398 11.6947 16.034 10.5858 16.2718 9.54411ZM15.6965 23.4456C16.2978 23.8315 16.9082 24.2024 17.5276 24.5581C18.1592 24.921 18.7986 25.2695 19.4459 25.6034C18.4124 26.0602 17.356 26.463 16.2808 26.8103C16.0306 25.6996 15.8356 24.5773 15.6965 23.4474M25.5981 29.1568C25.1167 30.6946 24.3549 32.1301 23.3514 33.3908C23.1036 33.7521 22.7845 34.059 22.4137 34.2924C22.0429 34.5259 21.6283 34.681 21.1954 34.7483C19.8724 34.7483 18.1864 32.7792 17.0394 29.4926C16.9039 29.1042 16.7793 28.7122 16.6656 28.3166C18.2359 27.8106 19.77 27.1982 21.2571 26.4836C22.7577 27.1754 24.3017 27.7689 25.8794 28.2603C25.7923 28.5616 25.6985 28.8604 25.5981 29.1568ZM26.2551 26.754C25.1705 26.4161 24.1033 26.0249 23.0574 25.5816C23.6732 25.2586 24.2932 24.9168 24.9175 24.5563C25.5588 24.186 26.1831 23.8067 26.7904 23.4184C26.6696 24.5387 26.4909 25.6521 26.2551 26.754ZM27.0663 18.1463C27.0663 19.2485 27.0318 20.3495 26.9628 21.4493C26.0663 22.0567 25.1262 22.6447 24.1426 23.2133C23.1626 23.7783 22.1965 24.2961 21.2444 24.7668C20.2438 24.2877 19.2626 23.7711 18.3007 23.2169C17.3449 22.6664 16.4109 22.0802 15.4986 21.4584C15.414 20.3574 15.3716 19.2552 15.3716 18.1518C15.3716 17.0496 15.4127 15.948 15.495 14.847C17.3188 13.6005 19.2347 12.4945 21.2262 11.5386C22.2135 12.0189 23.1832 12.5337 24.1354 13.083C25.0912 13.6323 26.0288 14.2124 26.9483 14.8234C27.027 15.9292 27.0663 17.0369 27.0663 18.1463ZM28.8012 8.90348C32.2893 8.22656 34.9172 8.68207 35.5759 9.82359C36.2783 11.0395 35.2729 13.7218 32.7557 16.5493C32.6166 16.7054 32.4726 16.8621 32.3238 17.0193C31.0981 15.9108 29.798 14.8873 28.4328 13.9559C28.2956 12.3388 28.05 10.7327 27.6978 9.14848C28.0729 9.05653 28.4407 8.97486 28.8012 8.90348ZM28.5653 15.954C29.4868 16.6259 30.3724 17.3456 31.2186 18.11C30.3762 18.8867 29.4936 19.6184 28.5744 20.3023C28.6022 19.5837 28.6161 18.865 28.6161 18.1463C28.6161 17.4156 28.5992 16.6848 28.5653 15.954ZM35.5868 26.46C34.9262 27.6051 32.3782 28.0824 28.9573 27.4364C28.5653 27.3626 28.1636 27.2742 27.7523 27.1714C28.0962 25.5667 28.3308 23.9405 28.4546 22.3041C29.817 21.3565 31.1128 20.3166 32.3329 19.1917C32.547 19.4131 32.7503 19.6333 32.9426 19.8523C34.0346 21.0375 34.8978 22.4145 35.4888 23.9138C35.678 24.3091 35.7842 24.7389 35.8011 25.1768C35.818 25.6147 35.745 26.0514 35.5868 26.46Z" fill="#9CA3AF"/>
<path d="M23.4118 21.8556C23.4118 21.0923 23.715 20.3604 24.2547 19.8207C24.7943 19.281 25.5263 18.9778 26.2896 18.9778H34.9229C35.6861 18.9778 36.4181 19.281 36.9578 19.8207C37.4975 20.3604 37.8007 21.0923 37.8007 21.8556V39.1222C37.8007 39.8855 37.4975 40.6174 36.9578 41.1571C36.4181 41.6968 35.6861 42 34.9229 42H26.2896C25.5263 42 24.7943 41.6968 24.2547 41.1571C23.715 40.6174 23.4118 39.8855 23.4118 39.1222V21.8556ZM32.0451 37.6833C32.0451 37.3017 31.8935 36.9357 31.6237 36.6659C31.3538 36.396 30.9878 36.2445 30.6062 36.2445C30.2246 36.2445 29.8586 36.396 29.5888 36.6659C29.3189 36.9357 29.1673 37.3017 29.1673 37.6833C29.1673 38.065 29.3189 38.4309 29.5888 38.7008C29.8586 38.9706 30.2246 39.1222 30.6062 39.1222C30.9878 39.1222 31.3538 38.9706 31.6237 38.7008C31.8935 38.4309 32.0451 38.065 32.0451 37.6833Z" fill="#9CA3AF"/>
</svg>
