<svg width="32" height="32" viewBox="0 0 32 32" fill="none" xmlns="http://www.w3.org/2000/svg">
<path d="M15.9995 6.47998C11.7684 6.47998 9.12392 8.59553 8.06615 12.8266C9.65281 10.7111 11.5039 9.91775 13.6195 10.4466C14.8267 10.7481 15.6888 11.6234 16.6447 12.5939C18.2009 14.1727 20.0005 16 23.9328 16C28.1639 16 30.8084 13.8844 31.8661 9.6533C30.2795 11.7689 28.4284 12.5622 26.3128 12.0333C25.1056 11.7318 24.2436 10.8565 23.2876 9.88602C21.7327 8.30729 19.9331 6.47998 15.9995 6.47998ZM8.06615 16C3.83504 16 1.19059 18.1156 0.132812 22.3467C1.71948 20.2311 3.57059 19.4377 5.68615 19.9667C6.89333 20.2681 7.75543 21.1435 8.71139 22.114C10.2676 23.6927 12.0672 25.52 15.9995 25.52C20.2305 25.52 22.8751 23.4044 23.9328 19.1733C22.3461 21.2889 20.4951 22.0823 18.3795 21.5533C17.1723 21.2519 16.3101 20.3765 15.3543 19.406C13.7993 17.8273 11.9998 16 8.06615 16Z" fill="#9FEF00"/>
</svg>
